<?xml version="1.0" standalone="no"?>
<!DOCTYPE svg PUBLIC "-//W3C//DTD SVG 20010904//EN"
 "http://www.w3.org/TR/2001/REC-SVG-20010904/DTD/svg10.dtd">
<svg version="1.0" xmlns="http://www.w3.org/2000/svg"
 width="480.000000pt" height="480.000000pt" viewBox="0 0 480.000000 480.000000"
 preserveAspectRatio="xMidYMid meet">
<metadata>
Created by potrace 1.16, written by Peter Selinger 2001-2019
</metadata>
<g transform="translate(0.000000,480.000000) scale(0.100000,-0.100000)"
fill="#000000" stroke="none">
<path d="M240 4773 c-96 -33 -173 -108 -214 -206 l-21 -52 -3 -2055 c-2 -1354
1 -2081 7 -2132 18 -132 82 -227 193 -285 l53 -28 2145 0 2145 0 53 28 c111
58 175 153 193 285 6 51 9 778 7 2132 -3 1944 -4 2057 -21 2100 -40 101 -122
180 -220 214 -43 15 -236 16 -2160 16 -1894 -1 -2117 -3 -2157 -17z m1000
-675 c218 -101 311 -350 209 -556 -126 -257 -465 -316 -665 -115 -159 160
-162 408 -6 575 90 96 172 129 312 125 77 -2 105 -8 150 -29z m2249 -1068
c247 -50 426 -202 510 -436 79 -217 91 -382 91 -1236 l0 -638 -359 0 -360 0
-3 683 c-4 668 -4 684 -26 762 -32 117 -79 181 -166 225 -66 33 -74 35 -175
35 -80 0 -118 -5 -156 -19 -152 -58 -230 -178 -255 -393 -5 -50 -10 -349 -10
-690 l0 -603 -355 0 -355 0 0 1140 0 1140 340 0 339 0 3 -156 3 -156 39 57
c115 166 333 286 561 309 72 7 238 -5 334 -24z m-2059 -1170 l0 -1140 -355 0
-355 0 0 1140 0 1140 355 0 355 0 0 -1140z"/>
</g>
</svg>
